<svg width="913" height="138" viewBox="0 0 913 138" fill="none" xmlns="http://www.w3.org/2000/svg">
<path d="M263.504 60.3753L257.964 51.7506L253.35 44.5668L252.425 43.126L246.883 34.5013L241.343 25.8766L235.804 17.2519L230.264 8.62724L224.727 0H112.478V138H224.727L230.267 129.375L235.806 120.751L241.346 112.126L246.885 103.501L252.427 94.8766L253.353 93.4357L257.967 86.2519L263.506 77.6272L269.046 69.0026L263.506 60.3779L263.504 60.3753ZM212.692 77.6247L207.153 86.2494L206.391 87.4347L201.613 94.874L196.071 103.499L190.532 112.123L184.992 120.748L183.285 123.408C183.229 123.497 183.175 123.584 183.116 123.668L179.455 129.373H172.382C166.746 129.373 161.953 125.771 160.176 120.748C159.695 119.399 159.437 117.948 159.437 116.436V21.5617C159.437 20.0493 159.695 18.5982 160.176 17.2494C161.953 12.2243 166.743 8.62468 172.382 8.62468H179.455L183.116 14.3293C183.175 14.4162 183.231 14.5031 183.285 14.5899L184.992 17.2494L190.532 25.874L196.071 34.4987L201.613 43.1234L206.391 50.5627L207.153 51.7481L212.692 60.3728L218.232 68.9974L212.692 77.6221V77.6247Z" fill="url(#paint0_linear_670_11)"/>
<path d="M61.8904 51.7506L65.5229 46.0945L67.4299 43.126L72.9694 34.4987L78.5089 25.874L84.0458 17.2494L89.5853 8.62468L95.1248 0H44.3133L38.7738 8.62468L33.2369 17.2494L22.1579 34.4987L18.5638 40.0961L16.6185 43.126L11.0815 51.7506L5.54204 60.3753L0 69L5.54204 77.6247L11.0815 86.2494L16.6185 94.874L18.5638 97.9014L22.1579 103.499L33.2369 120.751L38.7738 129.375L44.3133 138H95.1248L89.5853 129.375L84.0458 120.751L78.5089 112.123L72.9694 103.499L67.4299 94.874L65.5229 91.9055L61.8904 86.2494L56.3535 77.6247L50.8114 69L56.3535 60.3753L61.8904 51.7506Z" fill="url(#paint1_linear_670_11)"/>
<path d="M305.577 68.5051C305.577 49.0638 314.992 36.5585 331.968 36.5585C342.871 36.5585 349.438 41.7599 352.163 47.3317H352.536V16.3763H365.793V99.3378H353.526V89.1828H353.03C350.057 96.2415 343.242 100.574 332.71 100.574C315.115 100.574 305.577 88.069 305.577 68.5051ZM335.685 89.1828C346.588 89.1828 352.536 84.3545 352.536 74.0769V63.0559C352.536 52.7783 346.588 47.9499 335.685 47.9499C323.913 47.9499 318.959 53.3966 318.959 68.5051C318.959 83.6136 323.791 89.1828 335.685 89.1828Z" fill="url(#paint2_linear_670_11)"/>
<path d="M375.951 68.5048C375.951 49.4365 387.35 36.5582 405.686 36.5582C422.289 36.5582 433.936 46.4628 433.936 63.3034C433.936 66.5223 433.565 69.8665 433.192 71.7237H388.464C388.96 82.99 393.048 88.687 405.934 88.687C416.218 88.687 420.183 85.2202 420.183 79.6484V78.6572H433.44V79.771C433.44 92.4015 422.412 100.574 405.811 100.574C385.491 100.574 375.951 87.6957 375.951 68.5048ZM388.59 62.8078H421.175C421.67 52.2824 415.97 47.8245 405.441 47.8245C393.794 47.8245 389.333 53.2711 388.59 62.8078Z" fill="url(#paint3_linear_670_11)"/>
<path d="M460.948 99.3373L436.293 37.797H451.16L469.126 86.5816H469.993L488.081 37.797H502.578L477.797 99.3373H460.946H460.948Z" fill="url(#paint4_linear_670_11)"/>
<path d="M503.576 99.3374V88.812L533.559 58.3523L541.489 50.5528V49.5615H505.435V37.7997H559.95V49.1911L529.098 79.6508L521.912 86.5843V87.5755H561.809V99.3374H503.576Z" fill="url(#paint5_linear_670_11)"/>
<path d="M574.953 68.7529C574.953 49.4368 584.123 36.9289 600.848 36.9289C612.62 36.9289 620.177 43.1215 622.779 49.8072V16.3763H631.7V99.3378H623.771V87.5759H623.275C620.55 95.2528 613.364 100.577 601.84 100.577C584.619 100.577 574.953 88.0716 574.953 68.7554V68.7529ZM603.325 92.8974C615.468 92.8974 622.776 86.5822 622.776 74.0769V63.5515C622.776 50.9211 615.465 44.6058 603.325 44.6058C591.186 44.6058 583.872 50.055 583.872 68.7529C583.872 87.4508 591.183 92.8974 603.325 92.8974Z" fill="white"/>
<path d="M642.604 68.753C642.604 50.1803 653.632 36.9291 671.102 36.9291C685.847 36.9291 697.989 45.845 697.989 63.9221C697.989 66.7706 697.741 69.4939 697.371 71.2285H651.033C651.406 84.725 656.733 92.6497 671.353 92.6497C683.743 92.6497 688.7 87.0779 688.7 79.6488V78.9054H697.496V79.7715C697.496 91.5359 686.841 100.574 671.23 100.574C652.398 100.574 642.61 87.3257 642.61 68.753H642.604ZM651.03 64.7907H689.564C690.06 50.303 682.874 44.606 670.854 44.606C657.226 44.606 651.774 52.408 651.03 64.7907Z" fill="white"/>
<path d="M708.89 79.2784V79.0306H717.563V80.5149C717.563 88.9352 721.032 93.0202 734.91 93.0202C746.309 93.0202 749.282 89.8012 749.282 83.6112C749.282 77.4211 745.442 75.1909 736.148 73.4562L725.986 71.7241C716.076 69.8669 708.887 65.2837 708.887 54.5131C708.887 43.7425 717.809 36.9291 732.303 36.9291C746.797 36.9291 756.588 44.1104 756.588 57.8547V58.4729H748.039V57.4817C748.039 50.1752 745.189 44.6034 732.055 44.6034C720.904 44.6034 717.436 48.1953 717.436 54.3854C717.436 60.5754 720.534 62.683 729.701 64.4151L740.107 66.3976C750.762 68.3775 757.825 73.0832 757.825 83.2382C757.825 94.134 748.903 100.572 734.78 100.572C718.054 100.572 708.885 93.5132 708.885 79.2758L708.89 79.2784Z" fill="white"/>
<path d="M769.232 29.9955V16.3763H778.029V29.9955H769.232ZM769.232 99.3378V37.4271H778.029V99.3378H769.232Z" fill="white"/>
<path d="M788.438 65.4089C788.438 48.0753 797.979 36.9291 815.078 36.9291C825.857 36.9291 834.035 42.2531 836.76 50.0551H837.256V38.1681H845.186V96.7347C845.186 113.328 834.531 121.623 818.424 121.623C802.317 121.623 791.785 113.45 791.785 99.3354H800.581C800.581 109.365 805.66 113.698 818.547 113.698C831.433 113.698 836.264 108.992 836.264 96.7347V81.1331H836.141C833.291 88.1918 825.61 93.8862 814.955 93.8862C798.104 93.8862 788.441 82.7426 788.441 65.4064L788.438 65.4089ZM817.059 86.2119C828.087 86.2119 836.262 79.8966 836.262 67.2662V63.5516C836.262 50.9212 827.961 44.606 816.563 44.606C805.164 44.606 797.357 49.3117 797.357 65.4089C797.357 81.5061 805.164 86.2119 817.059 86.2119Z" fill="white"/>
<path d="M859.061 99.3377V38.1704H867.113V50.8009H867.486C869.84 44.3605 876.778 36.9314 889.417 36.9314C905.151 36.9314 912.339 47.0863 912.339 61.8193V99.3377H903.543V63.8018C903.543 50.5531 899.207 44.7335 886.691 44.7335C874.176 44.7335 867.982 50.4279 867.982 64.0496V99.3377H859.061Z" fill="white"/>
<defs>
<linearGradient id="paint0_linear_670_11" x1="4.35197" y1="171.96" x2="310.005" y2="-19.8755" gradientUnits="userSpaceOnUse">
<stop stop-color="#7FEC98"/>
<stop offset="1" stop-color="#1BD79D"/>
</linearGradient>
<linearGradient id="paint1_linear_670_11" x1="-23.569" y1="127.477" x2="282.084" y2="-64.3606" gradientUnits="userSpaceOnUse">
<stop stop-color="#7FEC98"/>
<stop offset="1" stop-color="#1BD79D"/>
</linearGradient>
<linearGradient id="paint2_linear_670_11" x1="291.464" y1="79.7994" x2="588.23" y2="-16.5088" gradientUnits="userSpaceOnUse">
<stop stop-color="#7FEC98"/>
<stop offset="1" stop-color="#1BD79D"/>
</linearGradient>
<linearGradient id="paint3_linear_670_11" x1="299.101" y1="103.343" x2="595.867" y2="7.03753" gradientUnits="userSpaceOnUse">
<stop stop-color="#7FEC98"/>
<stop offset="1" stop-color="#1BD79D"/>
</linearGradient>
<linearGradient id="paint4_linear_670_11" x1="303.923" y1="118.196" x2="600.686" y2="21.8878" gradientUnits="userSpaceOnUse">
<stop stop-color="#7FEC98"/>
<stop offset="1" stop-color="#1BD79D"/>
</linearGradient>
<linearGradient id="paint5_linear_670_11" x1="311.215" y1="140.655" x2="607.978" y2="44.3463" gradientUnits="userSpaceOnUse">
<stop stop-color="#7FEC98"/>
<stop offset="1" stop-color="#1BD79D"/>
</linearGradient>
</defs>
</svg>
